:SAMPLES-PER-SECOND 30
:FULLY-SPECIFIED
:DEGREES
106
root  34.72874258 36.49634414 -14.93198665 9.029302597 -6.757981777 4.51629591
lowerback  -7.059770107 -1.811920047 -1.431990385
upperback  -4.422850132 -1.824830055 -3.936079979
thorax  -0.6925070286 -0.7209330201 -3.37631011
lowerneck  1.284260035 -19.12709999 -13.79360008
upperneck  8.909660339 -26.94709778 15.6644001
head  6.507629871 -12.96700001 4.687129974
lclavicle  0 -4.497500157e-015 -2.743230041e-014
lhumerus  -50.85150146 30.10689926 60.62060165
lradius  0.0151645178 -6.507048965e-006 30.14530182
lwrist  4.824992743e-007 -3.790274832e-007 -29.32220078
lhand  -0 -36.67699814 -10.53429985
lfingers  90 7.125020027 -90
lthumb  94.68231268 -25.38048483 100.8179438
rclavicle  0 -4.497500157e-015 -2.743230041e-014
rhumerus  -34.5868988 -36.97809982 6.634732723
rradius  -5.16745672e-007 2.214343908e-008 78.48419952
rwrist  -0.0001011603963 -0.001600692281 -175.3450012
rhand  -1.770470015e-031 4.267010212 -6.295259953
rfingers  -90 -7.125020027 -90
rthumb  -84.47419737 -9.593621477 -59.86533703
rfemur  -14.03395844 15.97836399 12.07184029
rtibia  -1.978851199 -2.059889793 22.34191895
rfoot  -0.1754847914 -23.26752853 -34.73560715
rtoes  4.166442168 19.57861003 -102.2645758
lfemur  -8.845393181 -17.28164482 -21.37666512
ltibia  2.98362875 -1.968204975 14.95275974
lfoot  1.385395527 -21.78084946 38.54872894
ltoes  -8.424160971 -18.20553351 -115.3621235
107
root  34.7285924 36.49506456 -14.92969483 9.046298027 -6.770698547 4.528169155
lowerback  -7.060830116 -1.823889971 -1.460780382
upperback  -4.414090157 -1.840119958 -3.923360109
thorax  -0.6821190119 -0.7283700109 -3.347919941
lowerneck  1.335459948 -19.14979935 -13.80140018
upperneck  8.807640076 -26.97500038 15.68220043
head  6.474709988 -12.98770046 4.696760178
lclavicle  0 -4.497500157e-015 -2.743230041e-014
lhumerus  -50.82170105 30.12509918 60.63940048
lradius  0.01650333591 -6.507048965e-006 30.13129997
lwrist  4.824992743e-007 -3.790274832e-007 -29.26719856
lhand  -0 -36.73279953 -10.58670044
lfingers  90 7.125020027 -90
lthumb  94.7192391 -25.42999215 100.8822563
rclavicle  0 -4.497500157e-015 -2.743230041e-014
rhumerus  -33.78559875 -36.83849716 6.527947903
rradius  -5.16745672e-007 2.214343908e-008 77.3207016
rwrist  -0.0001011603963 -0.001600692281 -174.5659943
rhand  -1.770835311e-031 4.422589779 -6.354859829
rfingers  -90 -7.125020027 -90
rthumb  -84.46611002 -9.550791987 -59.71824268
rfemur  -14.05757523 15.9915657 12.0459528
rtibia  -1.982711077 -2.091044188 22.34779358
rfoot  -0.1949342787 -23.3199501 -34.75679398
rtoes  4.173394412 19.57718483 -102.2853233
lfemur  -8.834898949 -17.22984123 -21.40065575
ltibia  3.013875246 -1.945594788 14.91562462
lfoot  1.40925014 -21.81891251 38.55983734
ltoes  -8.468183634 -18.18564609 -115.5031034
108
root  34.72865848 36.49431063 -14.92493997 9.064148903 -6.785039425 4.530035019
lowerback  -7.050320625 -1.836090088 -1.48529017
upperback  -4.400269985 -1.857200027 -3.910059929
thorax  -0.6730909944 -0.7371739745 -3.321180105
lowerneck  1.341050029 -19.15749931 -13.83040047
upperneck  8.744979858 -26.98449898 15.71010017
head  6.463399887 -12.99540043 4.708360195
lclavicle  0 -4.497500157e-015 -2.743230041e-014
lhumerus  -50.79169846 30.19020081 60.64369965
lradius  0.01785288379 -6.507048965e-006 30.11700058
lwrist  4.824992743e-007 -3.790274832e-007 -29.28249931
lhand  -4.405283302e-031 -36.7201004 -10.57989979
lfingers  90 7.125020027 -90
lthumb  94.71190977 -25.42382901 100.8680835
rclavicle  0 -4.497500157e-015 -2.743230041e-014
rhumerus  -32.97090149 -36.86759949 6.468989372
rradius  -5.16745672e-007 2.214343908e-008 76.18370056
rwrist  -0.0001011603963 -0.001600692281 -174.0469971
rhand  -0 4.137340069 -6.081769943
rfingers  -90 -7.125020027 -90
rthumb  -84.39779974 -9.771421611 -59.97394971
rfemur  -14.05764675 15.93462181 12.0345192
rtibia  -1.975091219 -2.108853102 22.32227516
rfoot  -0.1741923541 -23.34394073 -34.69099808
rtoes  4.186020688 19.57459008 -102.3230075
lfemur  -8.839916229 -17.23144913 -21.40594101
ltibia  3.026738405 -1.941313624 14.90734005
lfoot  1.43487525 -21.82697296 38.60677719
ltoes  -8.486861938 -18.17716923 -115.5629646
109
root  34.72861943 36.49671059 -14.92196181 9.095446587 -6.795052052 4.550658226
lowerback  -7.019290447 -1.83739996 -1.479850292
upperback  -4.405819893 -1.860820055 -3.913009882
thorax  -0.6964640021 -0.7392359972 -3.326590061
lowerneck  1.414440036 -19.17020035 -13.8217001
upperneck  8.669890404 -27 15.71119976
head  6.428909779 -13.00990009 4.715400219
lclavicle  0 -4.497500157e-015 -2.743230041e-014
lhumerus  -50.79389954 30.16020012 60.63370132
lradius  0.01920946874 -6.507048965e-006 30.12417412
lwrist  4.824992743e-007 -3.790274832e-007 -29.27573204
lhand  -0 -36.66770172 -10.58590031
lfingers  90 7.125020027 -90
lthumb  94.68867697 -25.43141047 100.81259
rclavicle  0 -4.497500157e-015 -2.743230041e-014
rhumerus  -32.23440552 -36.83510208 6.480011463
rradius  -5.16745672e-007 2.214343908e-008 74.9756012
rwrist  -0.0001011603963 -0.001600692281 -174.0509949
rhand  -1.76966492e-031 3.902070045 -6.363430023
rfingers  -90 -7.125020027 -90
rthumb  -84.59819069 -9.514504568 -60.22792405
rfemur  -14.10405636 15.88586235 12.00108337
rtibia  -1.984835625 -2.134482861 22.34355164
rfoot  -0.1734489799 -23.3683033 -34.62978363
rtoes  4.177579943 19.5763256 -102.2978148
lfemur  -8.873862267 -17.23680496 -21.42984772
ltibia  3.037290812 -1.949622631 14.90581608
lfoot  1.438862562 -21.81557846 38.59964371
ltoes  -8.438928517 -18.19887652 -115.4093991
110
root  34.73102239 36.49896937 -14.92152327 9.148055077 -6.860598087 4.572475433
lowerback  -7.009169579 -1.815219998 -1.457229972
upperback  -4.387519836 -1.834859967 -3.918669939
thorax  -0.6828740239 -0.7278239727 -3.343470097
lowerneck  1.462120056 -19.18390083 -13.83310032
upperneck  8.607370377 -27.02020264 15.74489975
head  6.41094017 -13.02350044 4.729599953
lclavicle  0 -4.497500157e-015 -2.743230041e-014
lhumerus  -50.7641983 30.1303997 60.64770126
lradius  0.02056939155 -6.507048965e-006 30.11412048
lwrist  4.824992743e-007 -3.790274832e-007 -29.26030159
lhand  -4.401178415e-031 -36.64839935 -10.60620022
lfingers  90 7.125020027 -90
lthumb  94.68388691 -25.45208844 100.7937566
rclavicle  0 -4.497500157e-015 -2.743230041e-014
rhumerus  -31.5313015 -36.8586998 6.459550858
rradius  -5.16745672e-007 2.214343908e-008 73.72509766
rwrist  -0.0001011603963 -0.001600692281 -174.0529938
rhand  -1.770669225e-031 4.35255003 -6.058350086
rfingers  -90 -7.125020027 -90
rthumb  -84.33202646 -9.803057305 -59.76133789
rfemur  -14.19929028 15.91905689 11.95644093
rtibia  -2.002077579 -2.16672039 22.38491631
rfoot  -0.1848507822 -23.39739418 -34.59447479
rtoes  4.139940128 19.58402002 -102.1854993
lfemur  -8.972109795 -17.15511322 -21.42748833
ltibia  3.020140171 -1.948595762 14.95124531
lfoot  1.45608592 -21.8439045 38.58976364
ltoes  -8.484978277 -18.17802515 -115.5569266
111
root  34.73202863 36.49979839 -14.9218747 9.181682587 -6.890051842 4.590248108
lowerback  -6.987099648 -1.796569943 -1.428689957
upperback  -4.38214016 -1.812870026 -3.93520999
thorax  -0.6900399923 -0.71786201 -3.374819994
lowerneck  1.485049963 -19.21360016 -13.83220005
upperneck  8.588120461 -27.06340218 15.7638998
head  6.410240173 -13.04469967 4.730649948
lclavicle  0 -4.497500157e-015 -2.743230041e-014
lhumerus  -50.72800064 30.10470009 60.64139938
lradius  0.02195085585 -6.507048965e-006 30.10990143
lwrist  4.824992743e-007 -3.790274832e-007 -29.26499939
lhand  -4.401264094e-031 -36.64989853 -10.69419956
lfingers  90 7.125020027 -90
lthumb  94.70286272 -25.53851019 100.8032285
rclavicle  0 -4.497500157e-015 -2.743230041e-014
rhumerus  -30.93300056 -36.832901 6.470930099
rradius  -5.16745672e-007 2.214343908e-008 72.6242981
rwrist  -0.0001011603963 -0.001600692281 -173.4369965
rhand  -1.771065158e-031 4.517710209 -5.952439785
rfingers  -90 -7.125020027 -90
rthumb  -84.23601832 -9.903200934 -59.59040488
rfemur  -14.24991226 15.90189838 11.92941856
rtibia  -2.01112628 -2.183264494 22.40437126
rfoot  -0.186807543 -23.4031353 -34.56149673
rtoes  4.12918766 19.58620463 -102.1534222
lfemur  -8.982461929 -17.21081543 -21.46419144
ltibia  3.043638468 -1.989501834 14.92852592
lfoot  1.440294027 -21.7467289 38.5802803
ltoes  -8.482834951 -18.17899878 -115.5500565
